<svg width="26" height="24" viewBox="0 0 26 24" fill="none" xmlns="http://www.w3.org/2000/svg" xmlns:xlink="http://www.w3.org/1999/xlink">
<line x1="13.044" y1="18.769" x2="13.044" y2="4.722" stroke="#6552FE" stroke-width="1.003" stroke-miterlimit="3.999327" stroke-linecap="round" stroke-linejoin="round"/>
<path d="M14.843,15.967C15.234,16.359 15.87,16.359 16.262,15.967C16.653,15.575 16.653,14.94 16.262,14.548L14.843,15.967ZM8.528,8.234L7.819,7.524C7.427,7.916 7.427,8.551 7.819,8.943L8.528,8.234ZM16.262,1.92C16.653,1.528 16.653,0.892 16.262,0.501C15.87,0.109 15.234,0.109 14.843,0.501L16.262,1.92ZM16.262,14.548L9.238,7.524L7.819,8.943L14.843,15.967L16.262,14.548ZM9.238,8.943L16.262,1.92L14.843,0.501L7.819,7.524L9.238,8.943Z" transform="rotate(180 12.04 8.234)" fill="#6552FE"/>
</svg>
