<svg width="96" height="90" viewBox="0 0 96 90" fill="none" xmlns="http://www.w3.org/2000/svg" xmlns:xlink="http://www.w3.org/1999/xlink">
<g style="isolation:isolate">
<rect  x="0" y="0" width="96" height="90" rx="12" fill="#FFFFFF" fill-opacity="0.1"/>
<path d="M48.333,22.893L48.037,23.834L48.037,51.152L48.333,51.428L61.858,43.933L48.333,22.893Z" fill="#FFFFFF"/>
<path d="M48.333,22.893L34.807,43.933L48.333,51.428L48.333,38.169L48.333,22.893Z" fill="#FFFFFF"/>
<path d="M48.333,55.553L48.166,55.743L48.166,65.475L48.333,65.93L61.867,48.062L48.333,55.553Z" fill="#FFFFFF"/>
<path d="M48.333,65.93L48.333,55.553L34.807,48.062L48.333,65.93Z" fill="#FFFFFF"/>
<path d="M48.333,51.428L61.858,43.933L48.333,38.169L48.333,51.428Z" fill="#FFFFFF"/>
<path d="M34.807,43.933L48.333,51.428L48.333,38.169L34.807,43.933Z" fill="#FFFFFF"/>
</g>
</svg>
