<svg width="136" height="54" viewBox="0 0 136 54" fill="none" xmlns="http://www.w3.org/2000/svg" xmlns:xlink="http://www.w3.org/1999/xlink">
<path d="M2.814,35.418C2.492,34.969 1.868,34.865 1.419,35.186C0.969,35.507 0.865,36.132 1.186,36.581L2.814,35.418ZM134.585,33.197C134.694,32.656 134.343,32.128 133.802,32.019C133.26,31.91 132.733,32.261 132.624,32.803L134.585,33.197ZM131.054,43.03L131.645,43.836L131.054,43.03ZM131.831,41.812L130.851,41.614L131.831,41.812ZM125.554,43.701L126.518,43.435L125.554,43.701ZM128.665,44.782L129.257,45.588L128.665,44.782ZM121.97,30.683L121.006,30.949L121.97,30.683ZM116.426,27.703L115.456,27.948L116.426,27.703ZM114.936,21.8L115.905,21.555L114.936,21.8ZM100.744,21.467L101.493,20.805L100.744,21.467ZM95.948,20.38L96.871,20.764L95.948,20.38ZM99.293,19.824L100.043,19.162L99.293,19.824ZM89.134,27.399L88.166,27.651L89.134,27.399ZM84.161,9.942L83.54,10.725L84.161,9.942ZM84.854,11.004L85.821,10.751L84.854,11.004ZM71.301,8.422L72.272,8.661L71.301,8.422ZM72.813,6.946L72.598,5.97L72.813,6.946ZM64.545,21.161L63.652,21.611L64.545,21.161ZM68.274,20.739L67.303,20.501L68.274,20.739ZM59.052,10.123L58.078,10.348L59.052,10.123ZM59.214,10.572L60.107,10.122L59.214,10.572ZM53.174,1.97L54.169,2.072L53.174,1.97ZM50.855,24.539L49.86,24.437L50.855,24.539ZM38.026,30.094L37.038,29.944L38.026,30.094ZM33.096,19.25L32.1,19.339L33.096,19.25ZM19.622,19.21L18.628,19.101L19.622,19.21ZM40.982,10.605L39.993,10.455L40.982,10.605ZM44.94,10.629L43.95,10.767L44.94,10.629ZM79.481,6.233L78.86,7.016L79.481,6.233ZM12.637,50.883L11.824,51.464L12.637,50.883ZM13.451,50.301L2.814,35.418L1.186,36.581L11.824,51.464L13.451,50.301ZM17.246,50.047L20.616,19.319L18.628,19.101L15.258,49.829L17.246,50.047ZM21.61,18.428L31.104,18.428L31.104,16.428L21.61,16.428L21.61,18.428ZM32.1,19.339L33.061,30.062L35.053,29.883L34.092,19.161L32.1,19.339ZM39.015,30.244L41.971,10.754L39.993,10.455L37.038,29.944L39.015,30.244ZM43.95,10.767L45.894,24.748L47.875,24.472L45.931,10.491L43.95,10.767ZM51.85,24.641L54.169,2.072L52.179,1.868L49.86,24.437L51.85,24.641ZM56.138,1.949L58.078,10.348L60.026,9.897L58.086,1.499L56.138,1.949ZM58.321,11.021L63.652,21.611L65.438,20.712L60.107,10.122L58.321,11.021ZM69.245,20.978L72.272,8.661L70.33,8.184L67.303,20.501L69.245,20.978ZM73.028,7.923L78.023,6.823L77.594,4.87L72.598,5.97L73.028,7.923ZM78.86,7.016L83.54,10.725L84.782,9.158L80.102,5.449L78.86,7.016ZM83.886,11.256L88.166,27.651L90.101,27.146L85.821,10.751L83.886,11.256ZM93.838,28.047L96.871,20.764L95.025,19.995L91.992,27.278L93.838,28.047ZM98.544,20.486L99.994,22.129L101.493,20.805L100.043,19.162L98.544,20.486ZM102.243,23.143L109.792,23.143L109.792,21.143L102.243,21.143L102.243,23.143ZM113.966,22.044L115.456,27.948L117.395,27.459L115.905,21.555L113.966,22.044ZM118.365,30.214L120.042,30.214L120.042,28.214L118.365,28.214L118.365,30.214ZM121.006,30.949L124.59,43.966L126.518,43.435L122.934,30.418L121.006,30.949ZM129.257,45.588L131.645,43.836L130.462,42.223L128.074,43.976L129.257,45.588ZM132.811,42.009L134.585,33.197L132.624,32.803L130.851,41.614L132.811,42.009ZM131.645,43.836C132.248,43.393 132.664,42.742 132.811,42.009L130.851,41.614C130.802,41.859 130.663,42.076 130.462,42.223L131.645,43.836ZM124.59,43.966C125.148,45.992 127.562,46.832 129.257,45.588L128.074,43.976C127.509,44.39 126.704,44.111 126.518,43.435L124.59,43.966ZM120.042,30.214C120.492,30.214 120.887,30.515 121.006,30.949L122.934,30.418C122.576,29.116 121.392,28.214 120.042,28.214L120.042,30.214ZM115.456,27.948C115.792,29.281 116.991,30.214 118.365,30.214L118.365,28.214C117.907,28.214 117.507,27.903 117.395,27.459L115.456,27.948ZM112.273,21.775C112.71,21.081 113.766,21.249 113.966,22.044L115.905,21.555C115.275,19.055 111.957,18.527 110.581,20.708L112.273,21.775ZM109.792,23.143C110.799,23.143 111.736,22.626 112.273,21.775L110.581,20.708C110.411,20.978 110.113,21.143 109.792,21.143L109.792,23.143ZM99.994,22.129C100.564,22.773 101.382,23.143 102.243,23.143L102.243,21.143C101.956,21.143 101.683,21.02 101.493,20.805L99.994,22.129ZM96.871,20.764C97.155,20.082 98.055,19.933 98.544,20.486L100.043,19.162C98.576,17.502 95.876,17.95 95.025,19.995L96.871,20.764ZM88.166,27.651C88.892,30.432 92.734,30.699 93.838,28.047L91.992,27.278C91.624,28.162 90.343,28.073 90.101,27.146L88.166,27.651ZM83.54,10.725C83.71,10.86 83.831,11.047 83.886,11.256L85.821,10.751C85.657,10.121 85.292,9.562 84.782,9.158L83.54,10.725ZM72.272,8.661C72.363,8.291 72.656,8.005 73.028,7.923L72.598,5.97C71.482,6.216 70.603,7.074 70.33,8.184L72.272,8.661ZM63.652,21.611C64.905,24.1 68.58,23.685 69.245,20.978L67.303,20.501C67.081,21.403 65.856,21.542 65.438,20.712L63.652,21.611ZM58.078,10.348C58.131,10.581 58.213,10.807 58.321,11.021L60.107,10.122C60.071,10.051 60.044,9.975 60.026,9.897L58.078,10.348ZM54.169,2.072C54.284,0.948 55.883,0.848 56.138,1.949L58.086,1.499C57.323,-1.804 52.526,-1.504 52.179,1.868L54.169,2.072ZM45.894,24.748C46.382,28.26 51.487,28.168 51.85,24.641L49.86,24.437C49.739,25.613 48.038,25.643 47.875,24.472L45.894,24.748ZM33.061,30.062C33.378,33.595 38.483,33.751 39.015,30.244L37.038,29.944C36.86,31.113 35.159,31.061 35.053,29.883L33.061,30.062ZM31.104,18.428C31.621,18.428 32.053,18.823 32.1,19.339L34.092,19.161C33.953,17.614 32.657,16.428 31.104,16.428L31.104,18.428ZM20.616,19.319C20.672,18.812 21.1,18.428 21.61,18.428L21.61,16.428C20.08,16.428 18.795,17.58 18.628,19.101L20.616,19.319ZM41.971,10.754C42.144,9.614 43.791,9.624 43.95,10.767L45.931,10.491C45.454,7.063 40.512,7.033 39.993,10.455L41.971,10.754ZM78.023,6.823C78.317,6.759 78.624,6.83 78.86,7.016L80.102,5.449C79.395,4.889 78.474,4.676 77.594,4.87L78.023,6.823ZM11.824,51.464C13.425,53.705 16.946,52.785 17.246,50.047L15.258,49.829C15.158,50.742 13.985,51.048 13.451,50.301L11.824,51.464Z" fill="#48D49E"/>
</svg>
