<svg width="134" height="54" viewBox="0 0 134 54" fill="none" xmlns="http://www.w3.org/2000/svg" xmlns:xlink="http://www.w3.org/1999/xlink">
<path d="M1.91,36.276C1.589,35.826 0.964,35.722 0.515,36.044C0.065,36.365 -0.039,36.989 0.283,37.439L1.91,36.276ZM133.681,34.054C133.79,33.513 133.439,32.986 132.898,32.877C132.357,32.768 131.829,33.118 131.72,33.66L133.681,34.054ZM130.15,43.887L130.741,44.693L130.15,43.887ZM130.927,42.669L129.947,42.472L130.927,42.669ZM124.65,44.558L125.614,44.292L124.65,44.558ZM127.762,45.639L128.353,46.446L127.762,45.639ZM121.066,31.541L120.102,31.806L121.066,31.541ZM115.522,28.561L114.552,28.806L115.522,28.561ZM114.032,22.657L115.002,22.412L114.032,22.657ZM99.84,22.324L100.589,21.662L99.84,22.324ZM95.044,21.237L95.967,21.621L95.044,21.237ZM98.389,20.682L99.139,20.02L98.389,20.682ZM88.23,28.256L87.262,28.509L88.23,28.256ZM83.257,10.799L82.636,11.583L83.257,10.799ZM83.95,11.861L84.917,11.609L83.95,11.861ZM70.397,9.28L71.368,9.518L70.397,9.28ZM71.909,7.804L71.694,6.827L71.909,7.804ZM63.641,22.019L62.748,22.468L63.641,22.019ZM67.37,21.597L66.399,21.358L67.37,21.597ZM58.148,10.98L57.174,11.205L58.148,10.98ZM58.31,11.429L59.204,10.98L58.31,11.429ZM52.27,2.828L53.265,2.93L52.27,2.828ZM49.951,25.397L48.956,25.294L49.951,25.397ZM37.123,30.951L36.134,30.801L37.123,30.951ZM32.192,20.107L31.196,20.196L32.192,20.107ZM18.718,20.068L17.724,19.959L18.718,20.068ZM40.078,11.462L39.089,11.312L40.078,11.462ZM44.036,11.486L43.046,11.624L44.036,11.486ZM78.577,7.09L77.956,7.874L78.577,7.09ZM11.733,51.74L10.92,52.322L11.733,51.74ZM12.547,51.159L1.91,36.276L0.283,37.439L10.92,52.322L12.547,51.159ZM16.343,50.904L19.712,20.177L17.724,19.959L14.355,50.686L16.343,50.904ZM20.706,19.286L30.2,19.286L30.2,17.286L20.706,17.286L20.706,19.286ZM31.196,20.196L32.157,30.919L34.149,30.741L33.188,20.018L31.196,20.196ZM38.111,31.101L41.067,11.612L39.089,11.312L36.134,30.801L38.111,31.101ZM43.046,11.624L44.99,25.605L46.971,25.33L45.027,11.349L43.046,11.624ZM50.946,25.499L53.265,2.93L51.275,2.725L48.956,25.294L50.946,25.499ZM55.234,2.807L57.174,11.205L59.122,10.755L57.183,2.357L55.234,2.807ZM57.417,11.879L62.748,22.468L64.534,21.569L59.204,10.98L57.417,11.879ZM68.341,21.836L71.368,9.518L69.426,9.041L66.399,21.358L68.341,21.836ZM72.124,8.781L77.12,7.681L76.69,5.728L71.694,6.827L72.124,8.781ZM77.956,7.874L82.636,11.583L83.878,10.015L79.198,6.306L77.956,7.874ZM82.982,12.114L87.262,28.509L89.198,28.004L84.917,11.609L82.982,12.114ZM92.935,28.904L95.967,21.621L94.121,20.853L91.088,28.135L92.935,28.904ZM97.64,21.344L99.09,22.986L100.589,21.662L99.139,20.02L97.64,21.344ZM101.339,24L108.889,24L108.889,22L101.339,22L101.339,24ZM113.062,22.902L114.552,28.806L116.491,28.316L115.002,22.412L113.062,22.902ZM117.461,31.071L119.138,31.071L119.138,29.071L117.461,29.071L117.461,31.071ZM120.102,31.806L123.686,44.823L125.614,44.292L122.031,31.275L120.102,31.806ZM128.353,46.446L130.741,44.693L129.558,43.081L127.17,44.833L128.353,46.446ZM131.908,42.866L133.681,34.054L131.72,33.66L129.947,42.472L131.908,42.866ZM130.741,44.693C131.344,44.251 131.76,43.599 131.908,42.866L129.947,42.472C129.898,42.716 129.759,42.933 129.558,43.081L130.741,44.693ZM123.686,44.823C124.244,46.85 126.659,47.689 128.353,46.446L127.17,44.833C126.605,45.248 125.8,44.968 125.614,44.292L123.686,44.823ZM119.138,31.071C119.588,31.071 119.983,31.372 120.102,31.806L122.031,31.275C121.672,29.973 120.488,29.071 119.138,29.071L119.138,31.071ZM114.552,28.806C114.889,30.138 116.087,31.071 117.461,31.071L117.461,29.071C117.003,29.071 116.604,28.76 116.491,28.316L114.552,28.806ZM111.369,22.632C111.807,21.939 112.862,22.107 113.062,22.902L115.002,22.412C114.371,19.913 111.053,19.385 109.678,21.565L111.369,22.632ZM108.889,24C109.895,24 110.832,23.484 111.369,22.632L109.678,21.565C109.507,21.836 109.209,22 108.889,22L108.889,24ZM99.09,22.986C99.66,23.631 100.479,24 101.339,24L101.339,22C101.052,22 100.779,21.877 100.589,21.662L99.09,22.986ZM95.967,21.621C96.251,20.94 97.151,20.79 97.64,21.344L99.139,20.02C97.672,18.359 94.973,18.807 94.121,20.853L95.967,21.621ZM87.262,28.509C87.988,31.289 91.83,31.557 92.935,28.904L91.088,28.135C90.72,29.02 89.439,28.93 89.198,28.004L87.262,28.509ZM82.636,11.583C82.806,11.718 82.927,11.904 82.982,12.114L84.917,11.609C84.753,10.979 84.388,10.42 83.878,10.015L82.636,11.583ZM71.368,9.518C71.459,9.149 71.752,8.862 72.124,8.781L71.694,6.827C70.578,7.073 69.699,7.931 69.426,9.041L71.368,9.518ZM62.748,22.468C64.001,24.958 67.676,24.542 68.341,21.836L66.399,21.358C66.177,22.26 64.952,22.399 64.534,21.569L62.748,22.468ZM57.174,11.205C57.228,11.439 57.309,11.665 57.417,11.879L59.204,10.98C59.168,10.908 59.14,10.833 59.122,10.755L57.174,11.205ZM53.265,2.93C53.38,1.806 54.98,1.706 55.234,2.807L57.183,2.357C56.42,-0.946 51.622,-0.647 51.275,2.725L53.265,2.93ZM44.99,25.605C45.478,29.117 50.583,29.026 50.946,25.499L48.956,25.294C48.835,26.47 47.134,26.5 46.971,25.33L44.99,25.605ZM32.157,30.919C32.474,34.452 37.579,34.608 38.111,31.101L36.134,30.801C35.957,31.97 34.255,31.918 34.149,30.741L32.157,30.919ZM30.2,19.286C30.718,19.286 31.15,19.681 31.196,20.196L33.188,20.018C33.049,18.471 31.753,17.286 30.2,17.286L30.2,19.286ZM19.712,20.177C19.768,19.67 20.196,19.286 20.706,19.286L20.706,17.286C19.176,17.286 17.891,18.438 17.724,19.959L19.712,20.177ZM41.067,11.612C41.24,10.471 42.887,10.481 43.046,11.624L45.027,11.349C44.55,7.921 39.608,7.89 39.089,11.312L41.067,11.612ZM77.12,7.681C77.413,7.616 77.72,7.687 77.956,7.874L79.198,6.306C78.491,5.746 77.57,5.534 76.69,5.728L77.12,7.681ZM10.92,52.322C12.521,54.562 16.042,53.642 16.343,50.904L14.355,50.686C14.254,51.599 13.081,51.906 12.547,51.159L10.92,52.322Z" fill="#48D49E"/>
</svg>
