<svg width="138" height="40" viewBox="0 0 138 40" fill="none" xmlns="http://www.w3.org/2000/svg" xmlns:xlink="http://www.w3.org/1999/xlink">
<path d="M136.896,7.608C137.114,7.101 136.879,6.513 136.371,6.295C135.864,6.078 135.276,6.313 135.058,6.82L136.896,7.608ZM0.31,37.276C-0.09,37.658 -0.105,38.291 0.276,38.69C0.658,39.09 1.291,39.105 1.69,38.724L0.31,37.276ZM127.064,28.002L126.145,27.608L127.064,28.002ZM116.702,27.704L115.733,27.948L116.702,27.704ZM115.212,21.8L116.182,21.555L115.212,21.8ZM101.02,21.467L101.77,20.805L101.02,21.467ZM96.224,20.38L97.148,20.764L96.224,20.38ZM99.57,19.825L100.319,19.163L99.57,19.825ZM89.41,27.399L88.443,27.652L89.41,27.399ZM84.437,9.942L83.816,10.726L84.437,9.942ZM85.13,11.004L86.098,10.751L85.13,11.004ZM79.757,6.233L79.136,7.017L79.757,6.233ZM71.578,8.423L72.549,8.661L71.578,8.423ZM73.09,6.947L72.875,5.97L73.09,6.947ZM64.822,21.162L63.929,21.611L64.822,21.162ZM68.55,20.74L67.579,20.501L68.55,20.74ZM59.329,10.123L58.354,10.348L59.329,10.123ZM59.491,10.572L60.384,10.122L59.491,10.572ZM53.451,1.97L54.445,2.073L53.451,1.97ZM51.131,24.539L50.137,24.437L51.131,24.539ZM41.258,10.605L40.27,10.455L41.258,10.605ZM45.217,10.629L44.226,10.767L45.217,10.629ZM38.303,30.094L37.314,29.944L38.303,30.094ZM33.372,19.25L34.368,19.161L33.372,19.25ZM19.804,19.084L20.789,19.256L19.804,19.084ZM8.542,30.804L9.232,31.528L8.542,30.804ZM21.775,18.429L31.38,18.429L31.38,16.429L21.775,16.429L21.775,18.429ZM32.376,19.339L33.338,30.062L35.33,29.884L34.368,19.161L32.376,19.339ZM39.292,30.244L42.247,10.755L40.27,10.455L37.314,29.944L39.292,30.244ZM44.226,10.767L46.171,24.748L48.151,24.473L46.207,10.491L44.226,10.767ZM52.126,24.642L54.445,2.073L52.456,1.868L50.137,24.437L52.126,24.642ZM56.414,1.95L58.354,10.348L60.303,9.898L58.363,1.5L56.414,1.95ZM58.598,11.022L63.929,21.611L65.715,20.712L60.384,10.122L58.598,11.022ZM69.521,20.978L72.549,8.661L70.607,8.184L67.579,20.501L69.521,20.978ZM73.305,7.923L78.3,6.824L77.87,4.87L72.875,5.97L73.305,7.923ZM79.136,7.017L83.816,10.726L85.058,9.158L80.378,5.449L79.136,7.017ZM84.163,11.257L88.443,27.652L90.378,27.146L86.098,10.751L84.163,11.257ZM94.115,28.047L97.148,20.764L95.301,19.995L92.269,27.278L94.115,28.047ZM98.82,20.487L100.271,22.129L101.77,20.805L100.319,19.163L98.82,20.487ZM102.519,23.143L110.069,23.143L110.069,21.143L102.519,21.143L102.519,23.143ZM114.243,22.044L115.733,27.948L117.672,27.459L116.182,21.555L114.243,22.044ZM118.642,30.214L121.842,30.214L121.842,28.214L118.642,28.214L118.642,30.214ZM121.842,30.214L125.226,30.214L125.226,28.214L121.842,28.214L121.842,30.214ZM127.983,28.396L136.896,7.608L135.058,6.82L126.145,27.608L127.983,28.396ZM10.735,31.669L12.908,34.705L14.535,33.541L12.362,30.505L10.735,31.669ZM18.303,33.476L20.789,19.256L18.819,18.912L16.333,33.131L18.303,33.476ZM7.851,30.081L0.31,37.276L1.69,38.724L9.232,31.528L7.851,30.081ZM12.908,34.705C14.456,36.868 17.845,36.096 18.303,33.476L16.333,33.131C16.18,34.004 15.051,34.262 14.535,33.541L12.908,34.705ZM125.226,30.214C126.426,30.214 127.51,29.499 127.983,28.396L126.145,27.608C125.988,27.976 125.626,28.214 125.226,28.214L125.226,30.214ZM115.733,27.948C116.069,29.281 117.267,30.214 118.642,30.214L118.642,28.214C118.183,28.214 117.784,27.903 117.672,27.459L115.733,27.948ZM112.55,21.775C112.987,21.081 114.042,21.249 114.243,22.044L116.182,21.555C115.551,19.055 112.234,18.527 110.858,20.708L112.55,21.775ZM110.069,23.143C111.076,23.143 112.012,22.626 112.55,21.775L110.858,20.708C110.687,20.979 110.389,21.143 110.069,21.143L110.069,23.143ZM100.271,22.129C100.84,22.774 101.659,23.143 102.519,23.143L102.519,21.143C102.233,21.143 101.96,21.02 101.77,20.805L100.271,22.129ZM97.148,20.764C97.432,20.082 98.331,19.933 98.82,20.487L100.319,19.163C98.852,17.502 96.153,17.95 95.301,19.995L97.148,20.764ZM88.443,27.652C89.169,30.432 93.011,30.7 94.115,28.047L92.269,27.278C91.901,28.162 90.62,28.073 90.378,27.146L88.443,27.652ZM83.816,10.726C83.986,10.86 84.108,11.047 84.163,11.257L86.098,10.751C85.933,10.122 85.569,9.562 85.058,9.158L83.816,10.726ZM78.3,6.824C78.594,6.759 78.901,6.83 79.136,7.017L80.378,5.449C79.672,4.889 78.751,4.677 77.87,4.87L78.3,6.824ZM72.549,8.661C72.64,8.291 72.933,8.005 73.305,7.923L72.875,5.97C71.759,6.216 70.879,7.074 70.607,8.184L72.549,8.661ZM63.929,21.611C65.182,24.101 68.856,23.685 69.521,20.978L67.579,20.501C67.357,21.403 66.133,21.542 65.715,20.712L63.929,21.611ZM58.354,10.348C58.408,10.581 58.49,10.808 58.598,11.022L60.384,10.122C60.348,10.051 60.321,9.976 60.303,9.898L58.354,10.348ZM54.445,2.073C54.561,0.949 56.16,0.849 56.414,1.95L58.363,1.5C57.6,-1.803 52.802,-1.504 52.456,1.868L54.445,2.073ZM46.171,24.748C46.659,28.26 51.764,28.169 52.126,24.642L50.137,24.437C50.016,25.613 48.314,25.643 48.151,24.473L46.171,24.748ZM42.247,10.755C42.42,9.614 44.067,9.624 44.226,10.767L46.207,10.491C45.731,7.064 40.789,7.033 40.27,10.455L42.247,10.755ZM33.338,30.062C33.654,33.595 38.76,33.751 39.292,30.244L37.314,29.944C37.137,31.113 35.435,31.061 35.33,29.884L33.338,30.062ZM31.38,18.429C31.898,18.429 32.33,18.824 32.376,19.339L34.368,19.161C34.23,17.614 32.933,16.429 31.38,16.429L31.38,18.429ZM21.775,16.429C20.317,16.429 19.07,17.476 18.819,18.912L20.789,19.256C20.873,18.778 21.289,18.429 21.775,18.429L21.775,16.429ZM12.362,30.505C11.3,29.022 9.171,28.821 7.851,30.081L9.232,31.528C9.672,31.108 10.382,31.175 10.735,31.669L12.362,30.505Z" transform="rotate(360 68.489 18.25)" fill="#FF8266"/>
</svg>
