<svg width="900" height="514" viewBox="0 0 900 514" fill="none" xmlns="http://www.w3.org/2000/svg" xmlns:xlink="http://www.w3.org/1999/xlink">
<g opacity="0.5">
<path d="M268.78,316.957L268.7,315.96L268.78,316.957ZM480.828,126.957L480.9,127.955L480.828,126.957ZM728.22,246.957L728.408,247.939L728.22,246.957ZM7.796,171.957C7.039,172.611 7.04,172.612 7.041,172.613C7.042,172.614 7.044,172.616 7.046,172.619C7.05,172.624 7.057,172.631 7.065,172.641C7.082,172.66 7.106,172.688 7.139,172.726C7.205,172.802 7.303,172.914 7.433,173.062C7.692,173.357 8.078,173.794 8.586,174.363C9.602,175.501 11.108,177.167 13.068,179.282C16.989,183.514 22.73,189.544 30.015,196.748C44.584,211.154 65.336,230.258 90.066,249.049C139.475,286.591 204.98,323.046 268.858,317.954L268.7,315.96C205.602,320.99 140.615,284.945 91.276,247.456C66.633,228.732 45.947,209.689 31.422,195.326C24.16,188.145 18.439,182.135 14.535,177.923C12.584,175.817 11.086,174.16 10.078,173.031C9.573,172.466 9.191,172.033 8.936,171.742C8.808,171.596 8.712,171.486 8.648,171.413C8.616,171.376 8.592,171.348 8.576,171.33C8.568,171.321 8.562,171.314 8.558,171.31C8.556,171.307 8.555,171.306 8.554,171.305C8.553,171.304 8.553,171.303 7.796,171.957ZM268.858,317.954C301.554,315.348 323.142,302.636 339.124,284.873C355.058,267.161 365.39,244.45 375.656,221.953C385.948,199.396 396.172,177.055 411.882,159.754C427.544,142.505 448.686,130.242 480.9,127.955L480.758,125.96C448.024,128.284 426.404,140.784 410.4,158.409C394.444,175.982 384.102,198.625 373.836,221.123C363.544,243.68 353.328,266.093 337.636,283.535C321.99,300.925 300.874,313.396 268.7,315.96L268.858,317.954ZM480.9,127.955C537.972,123.902 571.51,158.881 605.012,192.637C638.432,226.308 671.838,258.773 728.408,247.939L728.032,245.975C672.612,256.588 639.914,224.963 606.432,191.228C573.034,157.577 538.872,121.833 480.758,125.96L480.9,127.955ZM728.408,247.939C765.194,240.894 800.362,216.247 826.272,193.463C839.24,182.058 849.92,171.093 857.358,162.978C861.078,158.921 863.986,155.575 865.968,153.242C866.958,152.075 867.718,151.162 868.228,150.539C868.484,150.227 868.678,149.989 868.81,149.828C868.874,149.747 868.924,149.686 868.958,149.644C868.974,149.623 868.986,149.608 868.994,149.597C869,149.592 869.002,149.588 869.004,149.585C869.006,149.584 869.006,149.582 869.008,149.582C869.008,149.581 869.008,149.58 868.226,148.957C867.444,148.334 867.444,148.334 867.444,148.334C867.444,148.335 867.442,148.336 867.442,148.337C867.44,148.339 867.436,148.343 867.434,148.348C867.426,148.357 867.414,148.372 867.398,148.392C867.366,148.431 867.318,148.491 867.254,148.57C867.126,148.727 866.936,148.962 866.684,149.269C866.178,149.884 865.426,150.789 864.444,151.947C862.476,154.263 859.584,157.59 855.884,161.627C848.482,169.702 837.854,180.614 824.95,191.961C799.116,214.68 764.28,239.033 728.032,245.975L728.408,247.939Z" transform="rotate(-35.446 438.011 222.032)" fill="#F2AF1A"/>
<path d="M279.533,350.604L279.453,349.607L279.533,350.604ZM491.581,160.604L491.653,161.601L491.581,160.604ZM738.973,280.604L739.161,281.586L738.973,280.604ZM18.549,205.604C17.792,206.257 17.793,206.258 17.794,206.26C17.795,206.261 17.797,206.263 17.799,206.265C17.803,206.27 17.81,206.278 17.818,206.287C17.835,206.306 17.86,206.335 17.893,206.373C17.958,206.448 18.056,206.561 18.186,206.708C18.445,207.003 18.831,207.44 19.339,208.009C20.356,209.147 21.861,210.813 23.822,212.929C27.743,217.16 33.483,223.191 40.768,230.394C55.337,244.8 76.089,263.905 100.82,282.695C150.229,320.237 215.733,356.692 279.611,351.601L279.453,349.607C216.355,354.636 151.368,318.591 102.03,281.103C77.386,262.378 56.7,243.335 42.175,228.972C34.913,221.791 29.192,215.782 25.289,211.57C23.337,209.463 21.839,207.807 20.831,206.677C20.327,206.113 19.944,205.68 19.689,205.389C19.561,205.243 19.465,205.133 19.401,205.059C19.369,205.023 19.345,204.995 19.329,204.977C19.321,204.968 19.315,204.961 19.311,204.956C19.309,204.954 19.308,204.953 19.307,204.951C19.306,204.95 19.306,204.95 18.549,205.604ZM279.611,351.601C312.307,348.994 333.895,336.282 349.877,318.519C365.811,300.808 376.143,278.096 386.409,255.6C396.701,233.043 406.925,210.701 422.635,193.4C438.297,176.151 459.439,163.889 491.653,161.601L491.511,159.606C458.777,161.931 437.157,174.431 421.153,192.056C405.197,209.629 394.855,232.272 384.589,254.769C374.297,277.327 364.081,299.74 348.389,317.182C332.743,334.572 311.627,347.042 279.453,349.607L279.611,351.601ZM491.653,161.601C548.725,157.549 582.263,192.528 615.765,226.283C649.185,259.954 682.591,292.419 739.161,281.586L738.785,279.622C683.365,290.235 650.667,258.61 617.185,224.874C583.787,191.223 549.625,155.48 491.511,159.606L491.653,161.601ZM739.161,281.586C775.947,274.541 811.115,249.894 837.025,227.11C849.993,215.705 860.673,204.74 868.111,196.625C871.831,192.567 874.739,189.221 876.721,186.888C877.711,185.722 878.471,184.808 878.981,184.185C879.237,183.874 879.431,183.635 879.563,183.474C879.627,183.393 879.677,183.332 879.711,183.291C879.727,183.27 879.739,183.254 879.747,183.244C879.753,183.238 879.755,183.234 879.757,183.232C879.759,183.23 879.759,183.229 879.761,183.228C879.761,183.228 879.761,183.227 878.979,182.604C878.197,181.98 878.197,181.981 878.197,181.981C878.197,181.982 878.195,181.982 878.195,181.984C878.193,181.986 878.189,181.989 878.187,181.994C878.179,182.004 878.167,182.019 878.151,182.039C878.119,182.078 878.071,182.137 878.007,182.216C877.879,182.374 877.689,182.608 877.437,182.916C876.931,183.531 876.179,184.436 875.197,185.594C873.229,187.91 870.337,191.237 866.637,195.274C859.235,203.349 848.607,214.261 835.703,225.608C809.869,248.327 775.033,272.68 738.785,279.622L739.161,281.586Z" transform="rotate(-35.446 448.764 255.679)" fill="#48D4A5"/>
<path d="M291.101,386.8L291.021,385.803L291.101,386.8ZM503.149,196.8L503.221,197.797L503.149,196.8ZM750.541,316.8L750.729,317.782L750.541,316.8ZM30.117,241.8C29.36,242.454 29.361,242.454 29.362,242.456C29.363,242.457 29.365,242.459 29.367,242.461C29.371,242.466 29.378,242.474 29.386,242.483C29.403,242.503 29.428,242.531 29.46,242.569C29.526,242.645 29.624,242.757 29.754,242.904C30.013,243.2 30.399,243.637 30.907,244.206C31.923,245.344 33.429,247.01 35.39,249.125C39.311,253.356 45.051,259.387 52.336,266.591C66.905,280.996 87.657,300.101 112.388,318.892C161.797,356.434 227.301,392.888 291.179,387.797L291.021,385.803C227.923,390.833 162.936,354.788 113.598,317.299C88.954,298.575 68.268,279.531 53.743,265.168C46.481,257.988 40.76,251.978 36.857,247.766C34.905,245.66 33.407,244.003 32.399,242.873C31.894,242.309 31.512,241.876 31.257,241.585C31.129,241.439 31.033,241.329 30.969,241.256C30.937,241.219 30.913,241.191 30.897,241.173C30.889,241.164 30.883,241.157 30.879,241.153C30.877,241.15 30.876,241.149 30.875,241.148C30.874,241.147 30.874,241.146 30.117,241.8ZM291.179,387.797C323.875,385.191 345.463,372.479 361.445,354.716C377.379,337.004 387.711,314.293 397.977,291.796C408.269,269.239 418.493,246.898 434.203,229.597C449.865,212.348 471.007,200.085 503.221,197.797L503.079,195.802C470.345,198.127 448.725,210.627 432.721,228.252C416.765,245.825 406.423,268.468 396.157,290.966C385.865,313.523 375.649,335.936 359.957,353.378C344.311,370.768 323.195,383.238 291.021,385.803L291.179,387.797ZM503.221,197.797C560.293,193.745 593.831,228.724 627.333,262.48C660.753,296.151 694.159,328.615 750.729,317.782L750.353,315.818C694.933,326.431 662.235,294.806 628.753,261.071C595.355,227.42 561.193,191.676 503.079,195.802L503.221,197.797ZM750.729,317.782C787.515,310.737 822.683,286.09 848.593,263.306C861.561,251.901 872.241,240.936 879.679,232.821C883.399,228.764 886.307,225.418 888.289,223.084C889.279,221.918 890.039,221.004 890.549,220.382C890.805,220.07 890.999,219.832 891.131,219.67C891.195,219.59 891.245,219.528 891.279,219.487C891.295,219.466 891.307,219.451 891.315,219.44C891.321,219.435 891.323,219.431 891.325,219.428C891.327,219.426 891.327,219.425 891.329,219.425C891.329,219.424 891.329,219.423 890.547,218.8C889.765,218.177 889.765,218.177 889.765,218.177C889.765,218.178 889.763,218.179 889.763,218.18C889.761,218.182 889.757,218.186 889.755,218.191C889.747,218.2 889.735,218.215 889.719,218.235C889.687,218.274 889.639,218.334 889.575,218.412C889.447,218.57 889.257,218.805 889.005,219.112C888.499,219.727 887.747,220.632 886.765,221.79C884.797,224.106 881.905,227.433 878.205,231.47C870.803,239.545 860.175,250.457 847.271,261.804C821.437,284.523 786.601,308.876 750.353,315.818L750.729,317.782Z" transform="rotate(-35.446 460.332 291.875)" fill="#326CF9"/>
</g>
</svg>
