<svg width="590" height="282" viewBox="0 0 590 282" fill="none" xmlns="http://www.w3.org/2000/svg" xmlns:xlink="http://www.w3.org/1999/xlink">
<path d="M22.366,239.506L0,239.506L0,280C0,281.104 0.895,282 2,282L588,282C589.104,282 590,281.104 590,280L590,13.31L565.502,46.683C564.506,48.04 562.382,47.635 561.954,46.007L550.818,3.493C550.588,2.613 549.792,2 548.884,2L517.128,2C516.568,2 516.034,2.235 515.656,2.647L493.878,26.346C493.278,26.999 492.32,27.179 491.524,26.788L466.238,14.368C465.118,13.817 463.772,14.417 463.432,15.619L443.606,85.737C443.154,87.335 441.066,87.718 440.076,86.385L419.298,58.389C418.398,57.179 416.536,57.36 415.886,58.72L412.996,64.776C412.446,65.932 410.964,66.279 409.956,65.487L399.412,57.2C398.432,56.43 396.994,56.734 396.41,57.836L380.284,88.251C379.85,89.071 378.908,89.485 378.01,89.249L359.872,84.498C358.812,84.22 357.724,84.848 357.436,85.906L336.624,162.241C336.464,162.825 336.05,163.305 335.494,163.547L305.71,176.552C304.744,176.974 303.618,176.573 303.134,175.637L282.458,135.638C281.7,134.17 279.588,134.204 278.876,135.695L270.156,153.97C269.938,154.428 269.554,154.785 269.084,154.97L249.118,162.816C248.558,163.036 248.126,163.497 247.944,164.071L235.962,201.736C235.76,202.37 235.258,202.86 234.622,203.048L207.532,211.032C207.096,211.16 206.718,211.434 206.458,211.804L188.588,237.342C187.827,238.428 186.24,238.486 185.401,237.46L172.068,221.16C171.402,220.346 170.218,220.188 169.36,220.798L127.109,250.88C126.398,251.386 125.441,251.372 124.744,250.846L110.955,240.434C110.231,239.886 109.228,239.896 108.514,240.458L95.879,250.388C95.527,250.664 95.092,250.814 94.643,250.814L67.429,250.814C66.872,250.814 66.34,250.582 65.961,250.174L39.428,221.5C38.572,220.576 37.084,220.662 36.343,221.682L23.983,238.682C23.607,239.198 23.005,239.506 22.366,239.506Z" fill="url(#pf_0_1_201)"/>
<path d="M3.512,237.506C2.407,237.506 1.512,238.4 1.512,239.506C1.512,240.61 2.407,241.506 3.512,241.506L3.512,237.506ZM588.174,14.386C588.768,13.455 588.496,12.219 587.564,11.624C586.634,11.03 585.398,11.302 584.802,12.233L588.174,14.386ZM560.7,41.218L562.636,40.711L560.7,41.218ZM567.942,42.357L569.626,43.433L567.942,42.357ZM551.21,4.986L553.144,4.48L551.21,4.986ZM515.062,3.293L516.534,4.647L515.062,3.293ZM490.182,26.128L491.064,24.333L490.182,26.128ZM494.89,25.244L493.418,23.891L494.89,25.244ZM462.78,17.927L460.856,17.383L462.78,17.927ZM468.392,15.425L467.51,17.221L468.392,15.425ZM437.652,83.119L439.258,81.927L437.652,83.119ZM444.714,81.823L446.638,82.368L444.714,81.823ZM414.456,61.719L416.26,62.58L414.456,61.719ZM421.278,61.057L422.884,59.865L421.278,61.057ZM407.992,63.943L409.228,62.37L407.992,63.943ZM395.288,59.951L397.056,60.887L395.288,59.951ZM401.294,58.679L400.058,60.252L401.294,58.679ZM381.026,86.852L379.26,85.915L381.026,86.852ZM356.916,87.817L354.986,87.291L356.916,87.817ZM361.788,84.999L362.296,83.065L361.788,84.999ZM334.618,163.93L335.418,165.763L334.618,163.93ZM302.274,173.973L300.498,174.892L302.274,173.973ZM277.144,139.328L278.948,140.189L277.144,139.328ZM284.306,139.214L282.53,140.132L284.306,139.214ZM270.496,153.258L268.692,152.397L270.496,153.258ZM247.654,164.978L245.75,164.372L247.654,164.978ZM250.004,162.468L250.736,164.329L250.004,162.468ZM233.604,203.348L233.038,201.43L233.604,203.348ZM236.284,200.725L234.378,200.118L236.284,200.725ZM206.058,212.378L204.418,211.232L206.058,212.378ZM208.204,210.834L208.768,212.754L208.204,210.834ZM183.729,235.416L182.181,236.682L183.729,235.416ZM190.102,235.178L188.464,234.03L190.102,235.178ZM167.771,222.454L166.45,220.952L167.771,222.454ZM173.51,222.924L171.962,224.19L173.51,222.924ZM123.289,256.086L124.837,254.82L123.289,256.086ZM129.028,256.556L130.35,258.058L129.028,256.556ZM106.642,241.93L105.406,240.356L106.642,241.93ZM112.21,242.542L113.758,241.276L112.21,242.542ZM96.424,249.96L95.188,248.388L96.424,249.96ZM65.368,249.532L63.9,250.89L65.368,249.532ZM34.911,223.652L33.293,222.476L34.911,223.652ZM41.082,223.288L42.55,221.928L41.082,223.288ZM24.582,237.858L26.2,239.034L24.582,237.858ZM3.512,241.506L21.347,241.506L21.347,237.506L3.512,237.506L3.512,241.506ZM26.2,239.034L36.529,224.828L33.293,222.476L22.965,236.682L26.2,239.034ZM39.614,224.646L63.9,250.89L66.836,248.174L42.55,221.928L39.614,224.646ZM68.304,252.816L93.952,252.816L93.952,248.816L68.304,248.816L68.304,252.816ZM97.659,251.532L107.877,243.502L105.406,240.356L95.188,248.388L97.659,251.532ZM110.661,243.808L121.741,257.354L124.837,254.82L113.758,241.276L110.661,243.808ZM130.35,258.058L169.093,223.954L166.45,220.952L127.707,255.056L130.35,258.058ZM171.962,224.19L182.181,236.682L185.277,234.15L175.058,221.658L171.962,224.19ZM191.741,236.324L207.696,213.524L204.418,211.232L188.464,234.03L191.741,236.324ZM208.768,212.754L234.168,205.268L233.038,201.43L207.638,208.916L208.768,212.754ZM238.19,201.331L249.56,165.585L245.75,164.372L234.378,200.118L238.19,201.331ZM250.736,164.329L269.08,157.12L267.618,153.397L249.272,160.607L250.736,164.329ZM272.302,154.12L278.948,140.189L275.338,138.467L268.692,152.397L272.302,154.12ZM282.53,140.132L300.498,174.892L304.05,173.055L286.084,138.296L282.53,140.132ZM308.228,177.635L335.418,165.763L333.818,162.098L306.628,173.969L308.228,177.635ZM338.806,161.843L358.846,88.343L354.986,87.291L334.946,160.791L338.806,161.843ZM361.282,86.934L375.972,90.783L376.986,86.913L362.296,83.065L361.282,86.934ZM382.794,87.789L397.056,60.887L393.522,59.014L379.26,85.915L382.794,87.789ZM400.058,60.252L406.756,65.515L409.228,62.37L402.53,57.107L400.058,60.252ZM415.878,63.382L416.26,62.58L412.65,60.858L412.268,61.659L415.878,63.382ZM419.672,62.249L436.046,84.311L439.258,81.927L422.884,59.865L419.672,62.249ZM446.638,82.368L464.704,18.472L460.856,17.383L442.788,81.279L446.638,82.368ZM467.51,17.221L489.3,27.923L491.064,24.333L469.274,13.63L467.51,17.221ZM496.362,26.598L516.534,4.647L513.588,1.94L493.418,23.891L496.362,26.598ZM518.006,4L547.34,4L547.34,0L518.006,0L518.006,4ZM549.274,5.493L558.766,41.725L562.636,40.711L553.144,4.48L549.274,5.493ZM569.626,43.433L588.174,14.386L584.802,12.233L566.256,41.28L569.626,43.433ZM558.766,41.725C560.092,46.787 566.81,47.844 569.626,43.433L566.256,41.28C565.316,42.751 563.078,42.398 562.636,40.711L558.766,41.725ZM547.34,4C548.25,4 549.044,4.613 549.274,5.493L553.144,4.48C552.452,1.84 550.068,0 547.34,0L547.34,4ZM516.534,4.647C516.914,4.235 517.448,4 518.006,4L518.006,0C516.328,0 514.726,0.704 513.588,1.94L516.534,4.647ZM489.3,27.923C491.688,29.096 494.562,28.557 496.362,26.598L493.418,23.891C492.818,24.544 491.86,24.724 491.064,24.333L489.3,27.923ZM464.704,18.472C465.044,17.27 466.39,16.67 467.51,17.221L469.274,13.63C465.912,11.979 461.874,13.778 460.856,17.383L464.704,18.472ZM436.046,84.311C439.016,88.311 445.282,87.161 446.638,82.368L442.788,81.279C442.338,82.877 440.248,83.26 439.258,81.927L436.046,84.311ZM416.26,62.58C416.91,61.22 418.774,61.039 419.672,62.249L422.884,59.865C420.188,56.234 414.598,56.776 412.65,60.858L416.26,62.58ZM406.756,65.515C409.778,67.891 414.222,66.851 415.878,63.382L412.268,61.659C411.716,62.816 410.234,63.162 409.228,62.37L406.756,65.515ZM397.056,60.887C397.64,59.786 399.078,59.481 400.058,60.252L402.53,57.107C399.59,54.796 395.274,55.709 393.522,59.014L397.056,60.887ZM375.972,90.783C378.666,91.488 381.49,90.249 382.794,87.789L379.26,85.915C378.824,86.735 377.884,87.148 376.986,86.913L375.972,90.783ZM358.846,88.343C359.134,87.285 360.22,86.656 361.282,86.934L362.296,83.065C359.112,82.231 355.852,84.116 354.986,87.291L358.846,88.343ZM335.418,165.763C337.082,165.037 338.328,163.595 338.806,161.843L334.946,160.791C334.788,161.375 334.372,161.855 333.818,162.098L335.418,165.763ZM300.498,174.892C301.948,177.7 305.33,178.9 308.228,177.635L306.628,173.969C305.662,174.391 304.534,173.991 304.05,173.055L300.498,174.892ZM278.948,140.189C279.66,138.698 281.772,138.664 282.53,140.132L286.084,138.296C283.806,133.891 277.474,133.992 275.338,138.467L278.948,140.189ZM269.08,157.12C270.496,156.564 271.646,155.492 272.302,154.12L268.692,152.397C268.474,152.855 268.09,153.212 267.618,153.397L269.08,157.12ZM249.56,165.585C249.744,165.011 250.174,164.55 250.736,164.329L249.272,160.607C247.59,161.267 246.296,162.651 245.75,164.372L249.56,165.585ZM234.168,205.268C236.08,204.704 237.586,203.23 238.19,201.331L234.378,200.118C234.178,200.751 233.674,201.243 233.038,201.43L234.168,205.268ZM207.696,213.524C207.956,213.154 208.334,212.882 208.768,212.754L207.638,208.916C206.334,209.3 205.198,210.118 204.418,211.232L207.696,213.524ZM182.181,236.682C184.699,239.76 189.461,239.582 191.741,236.324L188.464,234.03C187.704,235.116 186.116,235.176 185.277,234.15L182.181,236.682ZM169.093,223.954C169.943,223.206 171.245,223.312 171.962,224.19L175.058,221.658C172.907,219.026 169.001,218.706 166.45,220.952L169.093,223.954ZM121.741,257.354C123.893,259.984 127.798,260.304 130.35,258.058L127.707,255.056C126.856,255.804 125.554,255.698 124.837,254.82L121.741,257.354ZM107.877,243.502C108.734,242.828 109.972,242.964 110.661,243.808L113.758,241.276C111.688,238.746 107.975,238.338 105.406,240.356L107.877,243.502ZM93.952,252.816C95.297,252.816 96.602,252.364 97.659,251.532L95.188,248.388C94.835,248.664 94.4,248.816 93.952,248.816L93.952,252.816ZM63.9,250.89C65.035,252.118 66.632,252.816 68.304,252.816L68.304,248.816C67.746,248.816 67.214,248.582 66.836,248.174L63.9,250.89ZM36.529,224.828C37.27,223.808 38.758,223.72 39.614,224.646L42.55,221.928C39.982,219.154 35.517,219.418 33.293,222.476L36.529,224.828ZM21.347,241.506C23.267,241.506 25.071,240.586 26.2,239.034L22.965,236.682C22.588,237.198 21.987,237.506 21.347,237.506L21.347,241.506Z" fill="#6552FE"/>
<defs>
<linearGradient id="pf_0_1_201" x1="295" y1="2" x2="295" y2="282" gradientUnits="userSpaceOnUse">
<stop stop-color="#FEF0EE" stop-opacity="0.24"/>
<stop offset="1" stop-color="#FEF0EE" stop-opacity="0.24"/>
</linearGradient>
</defs>
</svg>
