<svg width="42" height="42" viewBox="0 0 42 42" fill="none" xmlns="http://www.w3.org/2000/svg" xmlns:xlink="http://www.w3.org/1999/xlink">
<path d="M34.75,26.206C36.048,23.123 36.346,19.71 35.604,16.448C34.862,13.186 33.116,10.239 30.612,8.02C28.108,5.802 24.971,4.425 21.644,4.081C18.316,3.738 14.964,4.446 12.06,6.106L10.076,2.632C13.111,0.897 16.548,-0.011 20.044,-0.003C23.54,0.006 26.973,0.931 30,2.68C38.98,7.864 42.42,18.964 38.234,28.22L40.918,29.768L32.588,34.196L32.258,24.768L34.75,26.206L34.75,26.206ZM5.25,13.794C3.952,16.877 3.654,20.29 4.396,23.552C5.138,26.814 6.884,29.761 9.388,31.979C11.892,34.198 15.029,35.575 18.356,35.919C21.684,36.262 25.036,35.554 27.94,33.894L29.924,37.368C26.889,39.103 23.452,40.011 19.956,40.003C16.46,39.994 13.027,39.069 10,37.32C1.02,32.136 -2.42,21.036 1.766,11.78L-0.92,10.234L7.41,5.806L7.74,15.234L5.248,13.796L5.25,13.794ZM22.83,25.656L17.168,20L11.512,25.656L8.684,22.828L17.17,14.344L22.828,20L28.486,14.344L31.314,17.172L22.828,25.656L22.83,25.656Z" fill="#FFFFFF"/>
</svg>
