<svg width="40" height="42" viewBox="0 0 40 42" fill="none" xmlns="http://www.w3.org/2000/svg" xmlns:xlink="http://www.w3.org/1999/xlink">
<path d="M2.68,30C1.835,28.538 1.177,26.975 0.724,25.348C1.711,24.846 2.539,24.081 3.118,23.138C3.697,22.194 4.004,21.109 4.004,20.002C4.004,18.895 3.699,17.81 3.12,16.866C2.542,15.922 1.714,15.157 0.728,14.654C1.632,11.385 3.353,8.4 5.73,5.98C6.658,6.583 7.735,6.918 8.842,6.948C9.949,6.977 11.042,6.699 12.001,6.146C12.959,5.592 13.746,4.784 14.274,3.811C14.802,2.838 15.051,1.738 14.992,0.632C18.276,-0.217 21.722,-0.215 25.006,0.636C24.948,1.742 25.197,2.842 25.725,3.814C26.254,4.787 27.041,5.595 28,6.148C28.959,6.701 30.052,6.978 31.159,6.949C32.265,6.919 33.342,6.584 34.27,5.98C35.428,7.16 36.456,8.502 37.32,10C38.186,11.498 38.834,13.06 39.276,14.652C38.289,15.154 37.461,15.919 36.882,16.862C36.303,17.806 35.996,18.891 35.996,19.998C35.996,21.105 36.301,22.19 36.88,23.134C37.458,24.078 38.286,24.843 39.272,25.346C38.368,28.615 36.647,31.6 34.27,34.02C33.342,33.417 32.265,33.082 31.158,33.052C30.051,33.023 28.958,33.301 27.999,33.854C27.041,34.408 26.254,35.216 25.726,36.189C25.198,37.162 24.949,38.262 25.008,39.368C21.724,40.217 18.278,40.215 14.994,39.364C15.052,38.258 14.803,37.158 14.275,36.186C13.746,35.213 12.959,34.405 12,33.852C11.041,33.299 9.948,33.022 8.841,33.051C7.735,33.081 6.658,33.416 5.73,34.02C4.548,32.814 3.523,31.463 2.68,30L2.68,30ZM14,30.392C16.131,31.621 17.734,33.594 18.5,35.932C19.498,36.026 20.5,36.028 21.498,35.934C22.265,33.596 23.868,31.623 26,30.394C28.13,29.161 30.641,28.759 33.05,29.264C33.63,28.448 34.13,27.578 34.546,26.668C32.905,24.835 31.998,22.46 32,20C32,17.48 32.94,15.126 34.546,13.332C34.127,12.422 33.625,11.553 33.046,10.736C30.639,11.241 28.13,10.839 26,9.608C23.869,8.379 22.266,6.406 21.5,4.068C20.502,3.974 19.5,3.972 18.502,4.066C17.735,6.404 16.132,8.377 14,9.606C11.87,10.839 9.359,11.241 6.95,10.736C6.371,11.553 5.87,12.422 5.454,13.332C7.095,15.165 8.002,17.54 8,20C8,22.52 7.06,24.874 5.454,26.668C5.873,27.578 6.375,28.447 6.954,29.264C9.361,28.759 11.87,29.161 14,30.392ZM20,26C18.409,26 16.883,25.368 15.757,24.243C14.632,23.117 14,21.591 14,20C14,18.409 14.632,16.883 15.757,15.757C16.883,14.632 18.409,14 20,14C21.591,14 23.117,14.632 24.243,15.757C25.368,16.883 26,18.409 26,20C26,21.591 25.368,23.117 24.243,24.243C23.117,25.368 21.591,26 20,26ZM20,22C20.53,22 21.039,21.789 21.414,21.414C21.789,21.039 22,20.53 22,20C22,19.47 21.789,18.961 21.414,18.586C21.039,18.211 20.53,18 20,18C19.47,18 18.961,18.211 18.586,18.586C18.211,18.961 18,19.47 18,20C18,20.53 18.211,21.039 18.586,21.414C18.961,21.789 19.47,22 20,22L20,22Z" fill="#FFFFFF"/>
</svg>
