<svg width="32" height="42" viewBox="0 0 32 42" fill="none" xmlns="http://www.w3.org/2000/svg" xmlns:xlink="http://www.w3.org/1999/xlink">
<path d="M32,42L28,42L28,38C28,36.409 27.368,34.883 26.243,33.757C25.117,32.632 23.591,32 22,32L10,32C8.409,32 6.883,32.632 5.757,33.757C4.632,34.883 4,36.409 4,38L4,42L0,42L0,38C0,35.348 1.054,32.804 2.929,30.929C4.804,29.054 7.348,28 10,28L22,28C24.652,28 27.196,29.054 29.071,30.929C30.946,32.804 32,35.348 32,38L32,42ZM16,24C14.424,24 12.864,23.69 11.408,23.087C9.952,22.483 8.629,21.6 7.515,20.485C6.4,19.371 5.517,18.048 4.913,16.592C4.31,15.136 4,13.576 4,12C4,10.424 4.31,8.864 4.913,7.408C5.517,5.952 6.4,4.629 7.515,3.515C8.629,2.4 9.952,1.517 11.408,0.913C12.864,0.31 14.424,0 16,0C19.183,0 22.235,1.264 24.485,3.515C26.736,5.765 28,8.817 28,12C28,15.183 26.736,18.235 24.485,20.485C22.235,22.736 19.183,24 16,24L16,24ZM16,20C18.122,20 20.157,19.157 21.657,17.657C23.157,16.157 24,14.122 24,12C24,9.878 23.157,7.843 21.657,6.343C20.157,4.843 18.122,4 16,4C13.878,4 11.843,4.843 10.343,6.343C8.843,7.843 8,9.878 8,12C8,14.122 8.843,16.157 10.343,17.657C11.843,19.157 13.878,20 16,20L16,20Z" fill="#FFFFFF"/>
</svg>
