<svg width="32" height="44" viewBox="0 0 32 44" fill="none" xmlns="http://www.w3.org/2000/svg" xmlns:xlink="http://www.w3.org/1999/xlink">
<path d="M30.644,23.084C29.622,21.762 28.08,20.854 26.017,20.36C28.644,19.02 29.798,16.746 29.481,13.538C29.375,12.374 29.054,11.366 28.516,10.511C27.977,9.656 27.251,8.969 26.334,8.449C25.417,7.928 24.42,7.532 23.346,7.258C22.27,6.985 21.036,6.787 19.643,6.664L19.643,0L15.572,0L15.572,6.478C14.867,6.478 13.791,6.496 12.346,6.531L12.346,0L8.273,0L8.273,6.664C7.692,6.681 6.837,6.69 5.709,6.69L0.103,6.664L0.103,11L3.038,11C4.378,11 5.162,11.6 5.391,12.798L5.391,20.388C5.568,20.388 5.709,20.397 5.814,20.414L5.391,20.414L5.391,31.044C5.25,31.943 4.739,32.393 3.858,32.393L0.923,32.393L0.103,37.232L5.392,37.232C5.727,37.232 6.211,37.236 6.846,37.244C7.481,37.253 7.956,37.257 8.274,37.257L8.274,44L12.347,44L12.347,37.337C13.087,37.355 14.162,37.363 15.572,37.363L15.572,44L19.644,44L19.644,37.257C21.09,37.187 22.373,37.056 23.492,36.861C24.611,36.666 25.682,36.363 26.704,35.948C27.727,35.534 28.581,35.018 29.269,34.401C29.957,33.785 30.525,33 30.975,32.048C31.424,31.096 31.711,29.994 31.834,28.742C32.064,26.292 31.667,24.406 30.644,23.084ZM12.425,11.29C12.549,11.29 12.897,11.286 13.47,11.277C14.043,11.268 14.519,11.259 14.898,11.25C15.277,11.242 15.788,11.264 16.432,11.317C17.075,11.369 17.617,11.44 18.058,11.528C18.498,11.616 18.983,11.762 19.512,11.964C20.041,12.167 20.464,12.414 20.781,12.705C21.098,12.995 21.367,13.366 21.587,13.815C21.808,14.265 21.918,14.78 21.918,15.362C21.918,15.856 21.839,16.305 21.68,16.711C21.522,17.116 21.284,17.456 20.967,17.729C20.65,18.002 20.323,18.241 19.988,18.443C19.653,18.646 19.225,18.809 18.705,18.932C18.186,19.056 17.732,19.153 17.344,19.223C16.956,19.294 16.472,19.342 15.89,19.369C15.308,19.395 14.867,19.413 14.567,19.422C14.268,19.43 13.858,19.43 13.338,19.422C12.817,19.413 12.514,19.408 12.425,19.408L12.425,11.29L12.425,11.29L12.425,11.29ZM23.545,29.298C23.377,29.703 23.161,30.056 22.897,30.356C22.632,30.655 22.284,30.92 21.852,31.149C21.421,31.378 21.001,31.563 20.596,31.704C20.191,31.846 19.701,31.968 19.129,32.075C18.555,32.18 18.053,32.255 17.621,32.299C17.189,32.343 16.674,32.378 16.074,32.405C15.475,32.431 15.008,32.445 14.673,32.445C14.338,32.445 13.915,32.44 13.403,32.431C12.892,32.423 12.566,32.418 12.425,32.418L12.425,23.48C12.566,23.48 12.984,23.472 13.681,23.454C14.378,23.436 14.946,23.428 15.386,23.428C15.827,23.428 16.436,23.454 17.212,23.507C17.987,23.56 18.639,23.639 19.168,23.744C19.697,23.85 20.274,24.013 20.9,24.234C21.526,24.454 22.033,24.723 22.421,25.04C22.809,25.358 23.135,25.763 23.399,26.257C23.664,26.75 23.796,27.314 23.796,27.949C23.796,28.443 23.712,28.892 23.545,29.298Z" fill="#FFFFFF"/>
</svg>
