<svg width="36" height="36" viewBox="0 0 36 36" fill="none" xmlns="http://www.w3.org/2000/svg" xmlns:xlink="http://www.w3.org/1999/xlink">
<path d="M22,36C20.895,36 20,35.105 20,34L20,18C20,16.895 20.895,16 22,16L34,16C35.105,16 36,16.895 36,18L36,34C36,35.105 35.105,36 34,36L22,36ZM2,20C0.895,20 0,19.105 0,18L0,2C0,0.895 0.895,0 2,0L14,0C15.105,0 16,0.895 16,2L16,18C16,19.105 15.105,20 14,20L2,20ZM11,16C11.552,16 12,15.552 12,15L12,5C12,4.448 11.552,4 11,4L5,4C4.448,4 4,4.448 4,5L4,15C4,15.552 4.448,16 5,16L11,16ZM2,36C0.895,36 0,35.105 0,34L0,26C0,24.895 0.895,24 2,24L14,24C15.105,24 16,24.895 16,26L16,34C16,35.105 15.105,36 14,36L2,36ZM4,31C4,31.552 4.448,32 5,32L11,32C11.552,32 12,31.552 12,31L12,29C12,28.448 11.552,28 11,28L5,28C4.448,28 4,28.448 4,29L4,31ZM24,31C24,31.552 24.448,32 25,32L31,32C31.552,32 32,31.552 32,31L32,21C32,20.448 31.552,20 31,20L25,20C24.448,20 24,20.448 24,21L24,31ZM20,2C20,0.895 20.895,0 22,0L34,0C35.105,0 36,0.895 36,2L36,10C36,11.105 35.105,12 34,12L22,12C20.895,12 20,11.105 20,10L20,2ZM25,4C24.448,4 24,4.448 24,5L24,7C24,7.552 24.448,8 25,8L31,8C31.552,8 32,7.552 32,7L32,5C32,4.448 31.552,4 31,4L25,4Z" fill="#FFFFFF"/>
</svg>
