<svg width="42" height="44" viewBox="0 0 42 44" fill="none" xmlns="http://www.w3.org/2000/svg" xmlns:xlink="http://www.w3.org/1999/xlink">
<path d="M36.072,27.069C34.599,26.262 32.997,25.887 31.419,25.9L31.433,25.892C29.268,25.917 27.492,24.233 27.466,22.132C27.441,20.059 29.128,18.355 31.251,18.284L31.251,18.283L31.247,18.281C32.853,18.274 34.477,17.865 35.957,17.011C40.383,14.457 41.838,8.903 39.207,4.607C36.575,0.311 30.855,-1.102 26.429,1.453C22.003,4.007 20.549,9.56 23.18,13.857C24.276,15.647 23.67,17.961 21.826,19.025C20.008,20.074 17.667,19.517 16.551,17.787L16.55,17.787L16.55,17.792C15.745,16.443 14.573,15.278 13.074,14.456C8.592,11.998 2.904,13.532 0.372,17.884C-2.161,22.235 -0.58,27.756 3.903,30.215C8.386,32.673 14.073,31.139 16.605,26.787C16.621,26.761 16.634,26.734 16.649,26.707L16.649,26.714L16.65,26.714C17.726,24.957 20.056,24.349 21.898,25.359C23.766,26.383 24.424,28.684 23.369,30.497C20.836,34.849 22.418,40.369 26.9,42.828C31.383,45.287 37.07,43.752 39.603,39.4C42.135,35.048 40.555,29.528 36.072,27.069Z" fill="#FFFFFF"/>
</svg>
